# xmcd
#
# Track frame offsets:
#	150
#	19282
#	39729
#	63283
#	82681
#	117587
#	131835
#	157054
#	172940
#	190063
#	236881
#	268898
#
# Disc length: 4102 seconds
#
# Revision: 0
# Processed by: cddbd v1.5.2PL0 Copyright (c) Steve Scherf et al.
# Submitted via: EasyCDDAExtractor 16.0.1.1
#
DISCID=a710040c
DTITLE=The Brew UK - Live In Europe
DYEAR=2012
DGENRE=Blues Rock
TTITLE0=Six Dead
TTITLE1=Sirens Of War
TTITLE2=Every Gig Has A Neighbour
TTITLE3=Postcode Hero
TTITLE4=Reached The Sky
TTITLE5=Ode To Eugene
TTITLE6=Master And The Puppeteer
TTITLE7=Imogen Molly
TTITLE8=Crimson Crystal Raindrops
TTITLE9=Kam
TTITLE10=A Smile To Lift The Doubt (Drum Solo)
TTITLE11=A Million Dead Stars
EXTD=
EXTT0=
EXTT1=
EXTT2=
EXTT3=
EXTT4=
EXTT5=
EXTT6=
EXTT7=
EXTT8=
EXTT9=
EXTT10=
EXTT11=
PLAYORDER=
